<svg xmlns="http://www.w3.org/2000/svg" xmlns:xlink="http://www.w3.org/1999/xlink" viewBox="0,0,256,256" width="74px" height="74px" fill-rule="nonzero"><g fill="#ffffff" fill-rule="nonzero" stroke="none" stroke-width="1" stroke-linecap="butt" stroke-linejoin="miter" stroke-miterlimit="10" stroke-dasharray="" stroke-dashoffset="0" font-family="none" font-weight="none" font-size="none" text-anchor="none" style="mix-blend-mode: normal"><g transform="scale(5.12,5.12)"><path d="M21,14c-2.90234,0 -5.47656,1.47656 -6.85937,4.66016l-3.26562,7.14063l-3.92578,-9.64062l-0.00781,-0.01562c-0.8125,-1.79297 -2.95312,-2.64062 -4.80859,-1.8125c-1.875,0.83984 -2.61719,3.05859 -1.77344,4.85156l5.84375,13.17578v0.00391c0.48828,1.0625 1.01563,1.95313 1.76563,2.61328c0.75391,0.66016 1.75,1.02344 2.85156,1.02344c1.16797,0 2.17969,-0.39844 2.91406,-1.07422c0.73828,-0.67578 1.21875,-1.55078 1.69922,-2.54687l0.00391,-0.00781l0.00391,-0.01562c0,0 4,-8.91797 4.46484,-9.9375c0.20313,-0.44531 0.46875,-0.82812 0.73828,-1.07031c0.27344,-0.23828 0.51563,-0.34766 0.85547,-0.34766c0.82813,0 1.5,0.67188 1.5,1.5v9.875c0,1.94531 1.53906,3.625 3.51953,3.625c1.98438,0 3.48047,-1.69922 3.48047,-3.625v-9.875c0,-0.82812 0.67188,-1.5 1.5,-1.5c0.82813,0 1.5,0.67188 1.5,1.5v10c0,1.92188 1.57813,3.5 3.5,3.5c1.92188,0 3.5,-1.57812 3.5,-3.5v-10c0,-0.82812 0.67188,-1.5 1.5,-1.5c0.82813,0 1.5,0.67188 1.5,1.5v10c0,1.92188 1.57813,3.5 3.5,3.5c1.92188,0 3.5,-1.57812 3.5,-3.5v-11.14062c0,-4.27344 -3.50391,-7.35937 -7.58594,-7.35937c-3.21484,0 -5.05078,1.50391 -5.84766,2.24219c-1.33203,-1.3125 -3.07812,-2.23828 -5.62891,-2.23828c-2.67969,0 -4.21094,1.40625 -4.96094,2.19922c-1.42187,-1.33594 -3.25,-2.20312 -4.97656,-2.20312zM3.625,15.98828c0.64844,-0.03125 1.19531,0.33203 1.49219,0.98047l5.64844,13.875l5.20313,-11.375l0.00391,-0.01172c1.14453,-2.625 2.71484,-3.45703 5.02734,-3.45703c1.31641,0 3.28906,0.85547 4.25,2.10938l0.78516,1.02344l0.79688,-1.01953c0,0 1.73047,-2.10937 4.10547,-2.10937c2.56641,0 3.79688,0.74609 4.84375,2.10547l0.73047,0.95313l0.80469,-0.89062c0,0 1.96875,-2.17187 5.09766,-2.17187c3.10938,0 5.58594,2.15234 5.58594,5.35938v11.14063c0,0.82813 -0.67187,1.5 -1.5,1.5c-0.82812,0 -1.5,-0.67187 -1.5,-1.5v-10c0,-1.92187 -1.57812,-3.5 -3.5,-3.5c-1.92187,0 -3.5,1.57813 -3.5,3.5v10c0,0.82813 -0.67187,1.5 -1.5,1.5c-0.82812,0 -1.5,-0.67187 -1.5,-1.5v-10c0,-1.92187 -1.57812,-3.5 -3.5,-3.5c-1.92187,0 -3.5,1.57813 -3.5,3.5v9.875c0,0.96484 -0.59375,1.625 -1.48047,1.625c-0.88281,0 -1.51953,-0.68359 -1.51953,-1.625v-9.875c0,-1.92187 -1.57812,-3.5 -3.5,-3.5c-0.85937,0 -1.625,0.35938 -2.18359,0.85547c-0.55469,0.49219 -0.9375,1.10547 -1.22266,1.72656c-0.50781,1.10547 -4.45312,9.90625 -4.46875,9.9375c-0.44141,0.91406 -0.83984,1.56641 -1.24219,1.93359c-0.40234,0.375 -0.78516,0.54688 -1.5625,0.54688c-0.71875,0 -1.11719,-0.16406 -1.53125,-0.52734c-0.41406,-0.36328 -0.83594,-1.00391 -1.26562,-1.94141l-5.85156,-13.19141v-0.01172c-0.41406,-0.86719 -0.13281,-1.76172 0.78125,-2.16797c0.23047,-0.10547 0.45703,-0.16016 0.67188,-0.17187z"></path></g></g></svg>